0
SECTION
2
HEADER
9
$INSUNITS
70
4
9
$ACADVER
1
AC1014
9
$HANDSEED
5
FFFF
0
ENDSEC
0
SECTION
2
TABLES
0
TABLE
2
VPORT
5
8
100
AcDbSymbolTable
0
ENDTAB
0
TABLE
2
LTYPE
5
5
100
AcDbSymbolTable
0
LTYPE
5
14
100
AcDbSymbolTableRecord
100
AcDbLinetypeTableRecord
2
BYBLOCK
70
0
0
LTYPE
5
15
100
AcDbSymbolTableRecord
100
AcDbLinetypeTableRecord
2
BYLAYER
70
0
0
ENDTAB
0
TABLE
2
LAYER
5
2
100
AcDbSymbolTable
70
2
0
LAYER
5
50
100
AcDbSymbolTableRecord
100
AcDbLayerTableRecord
2
0
70
0
6
CONTINUOUS
0
ENDTAB
0
TABLE
2
STYLE
5
3
100
AcDbSymbolTable
70
1
0
STYLE
5
11
100
AcDbSymbolTableRecord
100
AcDbTextStyleTableRecord
2
STANDARD
70
0
0
ENDTAB
0
TABLE
2
VIEW
5
6
100
AcDbSymbolTable
70
0
0
ENDTAB
0
TABLE
2
UCS
5
7
100
AcDbSymbolTable
70
0
0
ENDTAB
0
TABLE
2
APPID
5
9
100
AcDbSymbolTable
70
2
0
APPID
5
12
100
AcDbSymbolTableRecord
100
AcDbRegAppTableRecord
2
ACAD
70
0
0
ENDTAB
0
TABLE
2
DIMSTYLE
5
A
100
AcDbSymbolTable
70
1
0
ENDTAB
0
TABLE
2
BLOCK_RECORD
5
1
100
AcDbSymbolTable
70
1
0
BLOCK_RECORD
5
1F
100
AcDbSymbolTableRecord
100
AcDbBlockTableRecord
2
*MODEL_SPACE
0
BLOCK_RECORD
5
1B
100
AcDbSymbolTableRecord
100
AcDbBlockTableRecord
2
*PAPER_SPACE
0
ENDTAB
0
ENDSEC
0
SECTION
2
BLOCKS
0
BLOCK
5
20
100
AcDbEntity
100
AcDbBlockBegin
2
*MODEL_SPACE
0
ENDBLK
5
21
100
AcDbEntity
100
AcDbBlockEnd
0
BLOCK
5
1C
100
AcDbEntity
100
AcDbBlockBegin
2
*PAPER_SPACE
0
ENDBLK
5
1D
100
AcDbEntity
100
AcDbBlockEnd
0
ENDSEC
0
SECTION
2
ENTITIES
0
LWPOLYLINE
5
100
100
AcDbEntity
8
0
100
AcDbPolyline
90
16
70
1
43
0.0
10
118.23302173758566
20
-45.845280768757242
42
0.3462611950076277
10
118.23302249220814
20
-84.803254493544031
42
-0.35929053201508437
10
118.2182750433865
20
-85.439508746309826
42
0.9301287752009989
10
122.87296450665249
20
-90.094197783855847
42
-0.3592905473900081
10
123.5092186332421
20
-90.079450295465932
42
0.34626119629661495
10
162.46719228591957
20
-90.079449330657511
42
-0.35929054739005234
10
163.10344655936419
20
-90.09419679387095
42
0.9301287984513793
10
167.75813563086933
20
-85.439507509785741
42
-0.35929054577269365
10
167.74338813682652
20
-84.803253239265999
42
0.34626119437791081
10
167.74338714240454
20
-45.845279800234302
42
-0.35929056134212212
10
167.75813462200588
20
-45.209025508101739
42
0.93012882162071553
10
163.10344544558544
20
-40.554336312164239
42
-0.35929054596713622
10
162.46719117479384
20
-40.569083805938881
42
0.3462611930889225
10
123.50921759260984
20
-40.56908468046106
42
-0.35929054596716969
10
122.87296332115602
20
-40.554337215251508
42
0.93012879837031492
10
118.21827424607548
20
-45.209026495702751
42
-0.35929054758447537
0
LWPOLYLINE
5
101
100
AcDbEntity
8
0
100
AcDbPolyline
90
54
70
1
43
0.0
10
117.87925601350388
20
-88.574119965112189
10
117.77925601350393
20
-88.239919965112193
10
117.71825601350389
20
-87.896319965112198
10
117.69825601350391
20
-87.548119965112207
10
117.71825601350389
20
-87.199819965112212
10
117.77925601350393
20
-86.856219965112217
10
117.87925601350388
20
-86.522019965112179
10
118.01725601350387
20
-86.20171996511219
10
118.19225601350385
20
-85.899519965112191
10
118.40025601350393
20
-85.619719965112196
10
118.63925601350391
20
-85.365919965112212
10
118.9072560135039
20
-85.141719965112216
10
119.19825601350385
20
-84.95001996511219
10
119.51025601350388
20
-84.793419965112179
10
119.83825601350392
20
-84.674119965112183
10
120.17725601350389
20
-84.593619965112211
10
120.52425601350393
20
-84.553119965112188
10
120.87325601350389
20
-84.553119965112188
10
121.21925601350391
20
-84.593619965112211
10
121.55925601350393
20
-84.674119965112183
10
121.88625601350388
20
-84.793419965112179
10
122.19825601350391
20
-84.95001996511219
10
122.4902560135039
20
-85.141719965112216
10
122.75725601350388
20
-85.365919965112212
10
122.99625601350388
20
-85.619719965112196
10
123.2052560135039
20
-85.899519965112191
10
123.37925601350389
20
-86.20171996511219
10
123.51725601350388
20
-86.522019965112165
10
123.61725601350383
20
-86.856219965112217
10
123.67825601350387
20
-87.199819965112198
10
123.69825601350388
20
-87.548119965112193
10
123.67825601350387
20
-87.896319965112184
10
123.61725601350383
20
-88.239919965112179
10
123.51725601350388
20
-88.574119965112175
10
123.37925601350389
20
-88.894519965112153
10
123.2052560135039
20
-89.196619965112163
10
122.99625601350388
20
-89.476419965112157
10
122.75725601350388
20
-89.730219965112184
10
122.4902560135039
20
-89.95441996511218
10
122.19825601350391
20
-90.146119965112177
10
121.88625601350388
20
-90.302719965112175
10
121.55925601350393
20
-90.42201996511217
10
121.21925601350391
20
-90.502519965112185
10
120.87325601350389
20
-90.543019965112165
10
120.52425601350393
20
-90.543019965112165
10
120.17725601350389
20
-90.502519965112185
10
119.83825601350392
20
-90.42201996511217
10
119.51025601350388
20
-90.302719965112175
10
119.19825601350385
20
-90.146119965112177
10
118.9072560135039
20
-89.95441996511218
10
118.63925601350391
20
-89.730219965112184
10
118.40025601350393
20
-89.476419965112157
10
118.19225601350385
20
-89.196619965112163
10
118.01725601350387
20
-88.894519965112153
0
LWPOLYLINE
5
102
100
AcDbEntity
8
0
100
AcDbPolyline
90
54
70
1
43
0.0
10
126.19225601350382
20
-65.622519965112247
10
126.17225601350384
20
-65.27421996511228
10
126.19225601350382
20
-64.925919965112286
10
126.25325601350386
20
-64.58241996511228
10
126.35325601350388
20
-64.248119965112267
10
126.49125601350389
20
-63.927819965112278
10
126.66625601350383
20
-63.625719965112275
10
126.87425601350384
20
-63.345819965112291
10
127.11325601350381
20
-63.092119965112268
10
127.38125601350383
20
-62.867819965112268
10
127.67225601350383
20
-62.676119965112278
10
127.98425601350385
20
-62.519619965112305
10
128.31225601350386
20
-62.400219965112278
10
128.65125601350385
20
-62.319819965112274
10
128.99825601350389
20
-62.279319965112279
10
129.34625601350382
20
-62.279319965112279
10
129.69325601350388
20
-62.319819965112274
10
130.03225601350383
20
-62.400219965112278
10
130.36025601350389
20
-62.519619965112305
10
130.67225601350384
20
-62.676119965112278
10
130.96325601350378
20
-62.867819965112268
10
131.23125601350381
20
-63.092119965112268
10
131.47025601350379
20
-63.345819965112291
10
131.67825601350381
20
-63.625719965112282
10
131.85325601350385
20
-63.927819965112285
10
131.9912560135038
20
-64.248119965112267
10
132.09125601350379
20
-64.582419965112308
10
132.15225601350383
20
-64.9259199651123
10
132.17225601350378
20
-65.274219965112295
10
132.15225601350383
20
-65.622519965112275
10
132.09125601350382
20
-65.966019965112267
10
131.99125601350386
20
-66.300319965112266
10
131.85325601350388
20
-66.620619965112283
10
131.67825601350384
20
-66.92271996511225
10
131.47025601350381
20
-67.202619965112277
10
131.23125601350384
20
-67.456319965112272
10
130.96325601350384
20
-67.680619965112271
10
130.67225601350387
20
-67.872319965112254
10
130.36025601350391
20
-68.028819965112262
10
130.03225601350385
20
-68.148219965112261
10
129.69325601350391
20
-68.228619965112259
10
129.34625601350388
20
-68.269119965112267
10
128.99825601350392
20
-68.269119965112267
10
128.65125601350388
20
-68.228619965112259
10
128.31225601350388
20
-68.148219965112261
10
127.98425601350388
20
-68.028819965112262
10
127.67225601350387
20
-67.872319965112254
10
127.38125601350387
20
-67.680619965112271
10
127.11325601350384
20
-67.456319965112272
10
126.87425601350387
20
-67.202619965112277
10
126.66625601350387
20
-66.922719965112236
10
126.49125601350391
20
-66.620619965112269
10
126.35325601350391
20
-66.300319965112237
10
126.2532560135039
20
-65.966019965112253
0
CIRCLE
5
103
100
AcDbEntity
8
0
100
AcDbCircle
10
120.71434193940209
20
-87.598131003819219
30
0
40
1.6000000000000003
210
0
220
0
230
1
0
LWPOLYLINE
5
104
100
AcDbEntity
8
0
100
AcDbPolyline
90
54
70
1
43
0.0
10
168.24615601350374
20
-87.548119965112164
10
168.22585601350372
20
-87.89631996511217
10
168.16525601350375
20
-88.239919965112165
10
168.06515601350378
20
-88.57411996511216
10
167.92705601350377
20
-88.894519965112138
10
167.75255601350375
20
-89.196619965112149
10
167.54425601350377
20
-89.476419965112143
10
167.30485601350375
20
-89.730219965112155
10
167.03755601350372
20
-89.954419965112166
10
166.74615601350379
20
-90.146119965112149
10
166.43435601350376
20
-90.302719965112161
10
166.10655601350373
20
-90.422019965112156
10
165.76705601350372
20
-90.502519965112157
10
165.42055601350376
20
-90.543019965112151
10
165.07165601350374
20
-90.543019965112151
10
164.72515601350375
20
-90.502519965112157
10
164.38575601350374
20
-90.422019965112156
10
164.05785601350374
20
-90.302719965112161
10
163.74615601350371
20
-90.146119965112149
10
163.45465601350378
20
-89.954419965112166
10
163.18735601350372
20
-89.730219965112155
10
162.94795601350373
20
-89.476419965112143
10
162.73965601350372
20
-89.196619965112149
10
162.56525601350376
20
-88.894519965112138
10
162.42705601350372
20
-88.57411996511216
10
162.32695601350372
20
-88.239919965112165
10
162.26635601350378
20
-87.89631996511217
10
162.24615601350371
20
-87.548119965112164
10
162.26635601350378
20
-87.199819965112169
10
162.32695601350372
20
-86.856219965112174
10
162.42705601350372
20
-86.52201996511215
10
162.56525601350376
20
-86.201719965112162
10
162.73965601350372
20
-85.899519965112162
10
162.94795601350373
20
-85.619719965112168
10
163.18735601350372
20
-85.365919965112184
10
163.45465601350378
20
-85.141719965112173
10
163.74615601350371
20
-84.950019965112148
10
164.05785601350374
20
-84.79341996511215
10
164.38575601350374
20
-84.674119965112155
10
164.72515601350375
20
-84.593619965112183
10
165.07165601350374
20
-84.553119965112145
10
165.42055601350376
20
-84.553119965112145
10
165.76705601350372
20
-84.593619965112183
10
166.10655601350373
20
-84.674119965112155
10
166.43435601350376
20
-84.79341996511215
10
166.74615601350379
20
-84.950019965112148
10
167.03755601350372
20
-85.141719965112173
10
167.30485601350375
20
-85.365919965112184
10
167.54425601350377
20
-85.619719965112168
10
167.75255601350375
20
-85.899519965112162
10
167.92705601350377
20
-86.201719965112162
10
168.06515601350378
20
-86.522019965112179
10
168.16525601350375
20
-86.856219965112174
10
168.22585601350372
20
-87.199819965112169
0
LWPOLYLINE
5
105
100
AcDbEntity
8
0
100
AcDbPolyline
90
54
70
1
43
0.0
10
120.17725601350395
20
-40.045919965112382
10
120.52425601350393
20
-40.005419965112388
10
120.87325601350398
20
-40.005419965112388
10
121.21925601350398
20
-40.045919965112382
10
121.55925601350393
20
-40.12641996511239
10
121.88625601350395
20
-40.245719965112386
10
122.19825601350382
20
-40.40231996511239
10
122.49025601350385
20
-40.594019965112381
10
122.75725601350388
20
-40.818219965112377
10
122.99625601350385
20
-41.072019965112368
10
123.20525601350397
20
-41.351819965112398
10
123.37925601350395
20
-41.653919965112358
10
123.51725601350388
20
-41.974319965112386
10
123.61725601350386
20
-42.308519965112382
10
123.67825601350393
20
-42.652119965112377
10
123.69825601350385
20
-43.000319965112375
10
123.67825601350393
20
-43.348619965112334
10
123.61725601350386
20
-43.692219965112329
10
123.51725601350388
20
-44.026419965112353
10
123.37925601350395
20
-44.346719965112342
10
123.20525601350397
20
-44.648919965112341
10
122.99625601350385
20
-44.928719965112336
10
122.75725601350388
20
-45.182519965112327
10
122.49025601350385
20
-45.40671996511233
10
122.19825601350382
20
-45.598419965112356
10
121.88625601350395
20
-45.755019965112353
10
121.55925601350393
20
-45.874319965112356
10
121.21925601350398
20
-45.954819965112321
10
120.87325601350398
20
-45.995319965112351
10
120.52425601350393
20
-45.995319965112351
10
120.17725601350395
20
-45.954819965112321
10
119.83825601350397
20
-45.874319965112356
10
119.51025601350388
20
-45.755019965112353
10
119.19825601350396
20
-45.598419965112356
10
118.90725601350397
20
-45.40671996511233
10
118.63925601350395
20
-45.182519965112327
10
118.40025601350393
20
-44.928719965112336
10
118.19225601350385
20
-44.648919965112341
10
118.01725601350387
20
-44.346719965112342
10
117.87925601350395
20
-44.026419965112353
10
117.77925601350397
20
-43.692219965112329
10
117.71825601350398
20
-43.348619965112334
10
117.69825601350394
20
-43.000319965112375
10
117.71825601350398
20
-42.652119965112377
10
117.77925601350397
20
-42.308519965112382
10
117.87925601350395
20
-41.974319965112386
10
118.01725601350387
20
-41.653919965112358
10
118.19225601350385
20
-41.351819965112398
10
118.40025601350393
20
-41.072019965112368
10
118.63925601350395
20
-40.818219965112377
10
118.90725601350397
20
-40.594019965112381
10
119.19825601350396
20
-40.40231996511239
10
119.51025601350388
20
-40.245719965112386
10
119.83825601350397
20
-40.12641996511239
0
CIRCLE
5
106
100
AcDbEntity
8
0
100
AcDbCircle
10
120.71434093940205
20
-43.050404003819303
30
0
40
1.6000000000000003
210
0
220
0
230
1
0
LWPOLYLINE
5
107
100
AcDbEntity
8
0
100
AcDbPolyline
90
54
70
1
43
0.0
10
156.25135601350371
20
-68.228719965112248
10
155.91185601350375
20
-68.148219965112247
10
155.58405601350373
20
-68.028919965112237
10
155.27225601350375
20
-67.87231996511224
10
154.98075601350371
20
-67.680619965112243
10
154.71355601350379
20
-67.456419965112246
10
154.47415601350372
20
-67.202619965112262
10
154.26575601350376
20
-66.922819965112268
10
154.09135601350371
20
-66.620619965112269
10
153.95315601350376
20
-66.300319965112237
10
153.85315601350374
20
-65.966119965112256
10
153.79255601350371
20
-65.622519965112247
10
153.77225601350375
20
-65.27421996511228
10
153.79255601350371
20
-64.926019965112275
10
153.85315601350371
20
-64.58241996511228
10
153.95315601350373
20
-64.248219965112256
10
154.09135601350368
20
-63.927819965112263
10
154.26575601350373
20
-63.625719965112268
10
154.47415601350369
20
-63.345919965112273
10
154.71355601350376
20
-63.092119965112246
10
154.98075601350368
20
-62.867919965112279
10
155.27225601350369
20
-62.676219965112267
10
155.5840560135037
20
-62.519619965112284
10
155.91185601350372
20
-62.400319965112267
10
156.25135601350368
20
-62.319819965112259
10
156.5978560135037
20
-62.279319965112265
10
156.94665601350368
20
-62.279319965112265
10
157.29315601350373
20
-62.319819965112259
10
157.63265601350372
20
-62.400319965112267
10
157.96045601350369
20
-62.519619965112284
10
158.27225601350369
20
-62.676219965112267
10
158.56375601350373
20
-62.867919965112279
10
158.83095601350374
20
-63.092119965112246
10
159.0703560135037
20
-63.345919965112273
10
159.27875601350368
20
-63.625719965112268
10
159.4531560135037
20
-63.927819965112263
10
159.59135601350368
20
-64.248219965112256
10
159.69135601350371
20
-64.58241996511228
10
159.75195601350373
20
-64.926019965112275
10
159.77225601350369
20
-65.27421996511228
10
159.75195601350373
20
-65.622519965112247
10
159.69135601350374
20
-65.966119965112256
10
159.59135601350371
20
-66.300319965112237
10
159.45315601350373
20
-66.620619965112269
10
159.27875601350371
20
-66.922819965112268
10
159.07035601350373
20
-67.202619965112262
10
158.83095601350377
20
-67.456419965112246
10
158.56375601350376
20
-67.680619965112243
10
158.27225601350375
20
-67.87231996511224
10
157.96045601350372
20
-68.028919965112237
10
157.63265601350378
20
-68.148219965112247
10
157.29315601350376
20
-68.228719965112248
10
156.94665601350374
20
-68.269219965112242
10
156.59785601350376
20
-68.269219965112242
0
LWPOLYLINE
5
108
100
AcDbEntity
8
0
100
AcDbPolyline
90
54
70
1
43
0.0
10
163.45465601350372
20
-40.594019965112395
10
163.74615601350374
20
-40.402319965112369
10
164.05785601350371
20
-40.245719965112386
10
164.38575601350368
20
-40.126419965112404
10
164.72515601350369
20
-40.045919965112361
10
165.07165601350368
20
-40.005419965112367
10
165.42055601350373
20
-40.005419965112367
10
165.76705601350369
20
-40.045919965112361
10
166.10655601350371
20
-40.126419965112404
10
166.43435601350373
20
-40.245719965112386
10
166.74615601350376
20
-40.402319965112369
10
167.03755601350369
20
-40.594019965112395
10
167.3048560135037
20
-40.818219965112348
10
167.54425601350374
20
-41.072019965112368
10
167.75255601350369
20
-41.351819965112398
10
167.92705601350374
20
-41.653919965112379
10
168.06515601350372
20
-41.974319965112386
10
168.16525601350375
20
-42.308519965112396
10
168.22585601350369
20
-42.652119965112391
10
168.24615601350371
20
-43.000319965112382
10
168.22585601350369
20
-43.348619965112348
10
168.16525601350375
20
-43.692219965112329
10
168.06515601350372
20
-44.02641996511236
10
167.92705601350374
20
-44.346719965112356
10
167.75255601350369
20
-44.648919965112341
10
167.54425601350374
20
-44.928719965112343
10
167.3048560135037
20
-45.182519965112327
10
167.03755601350369
20
-45.406719965112345
10
166.74615601350376
20
-45.598419965112328
10
166.43435601350373
20
-45.755019965112361
10
166.10655601350371
20
-45.874319965112356
10
165.76705601350369
20
-45.954819965112328
10
165.42055601350373
20
-45.995319965112323
10
165.07165601350368
20
-45.995319965112323
10
164.72515601350369
20
-45.954819965112328
10
164.38575601350368
20
-45.874319965112356
10
164.05785601350371
20
-45.755019965112361
10
163.74615601350374
20
-45.598419965112328
10
163.45465601350372
20
-45.406719965112345
10
163.18735601350369
20
-45.182519965112327
10
162.9479560135037
20
-44.928719965112343
10
162.73965601350369
20
-44.648919965112341
10
162.56525601350373
20
-44.346719965112356
10
162.42705601350369
20
-44.02641996511236
10
162.32695601350369
20
-43.692219965112329
10
162.26635601350375
20
-43.348619965112348
10
162.24615601350368
20
-43.000319965112382
10
162.26635601350375
20
-42.652119965112391
10
162.32695601350369
20
-42.308519965112396
10
162.42705601350369
20
-41.974319965112386
10
162.56525601350373
20
-41.653919965112379
10
162.73965601350369
20
-41.351819965112398
10
162.9479560135037
20
-41.072019965112368
10
163.18735601350369
20
-40.818219965112348
0
CIRCLE
5
109
100
AcDbEntity
8
0
100
AcDbCircle
10
165.26206893940201
20
-87.598130003819193
30
0
40
1.6000000000000003
210
0
220
0
230
1
0
CIRCLE
5
110
100
AcDbEntity
8
0
100
AcDbCircle
10
165.26206793940202
20
-43.05040300381927
30
0
40
1.6000000000000003
210
0
220
0
230
1
0
CIRCLE
5
111
100
AcDbEntity
8
0
100
AcDbCircle
10
142.74530116698176
20
-65.345912716051103
30
0
40
36.635872664410833
210
0
220
0
230
1
0
LINE
5
112
100
AcDbEntity
8
0
100
AcDbLine
10
162.94441913431461
20
-119.30803631593443
30
0
11
175.06941913431439
21
-112.30803631593466
31
0
0
LWPOLYLINE
5
113
100
AcDbEntity
8
0
100
AcDbPolyline
90
8
70
1
43
0.0
10
133.44541913431522
20
-125.30903631593432
10
152.49541913431489
20
-125.30903631593432
10
152.49541913431489
20
-106.25903631593474
10
162.02041913431464
20
-122.75703631593444
10
178.51841913431434
20
-113.23203631593464
10
168.99341913431448
20
-96.734036315934944
10
152.49541913431489
20
-106.25903631593474
10
133.44541913431522
20
-106.25903631593474
0
LINE
5
114
100
AcDbEntity
8
0
100
AcDbLine
10
147.97041913431491
20
-122.78403631593437
30
0
11
149.97041913431485
21
-122.78403631593437
31
0
0
LINE
5
115
100
AcDbEntity
8
0
100
AcDbLine
10
135.97041913431519
20
-120.7840363159344
30
0
11
135.97041913431519
21
-122.78403631593437
31
0
0
LINE
5
116
100
AcDbEntity
8
0
100
AcDbLine
10
135.97041913431519
20
-122.78403631593437
30
0
11
137.97041913431516
21
-122.78403631593437
31
0
0
LWPOLYLINE
5
117
100
AcDbEntity
8
0
100
AcDbPolyline
90
4
70
1
43
0.0
10
135.97041913431519
20
-108.78403631593469
10
135.97041913431519
20
-122.78403631593437
10
149.97041913431485
20
-122.78403631593437
10
149.97041913431485
20
-108.78403631593469
0
LINE
5
118
100
AcDbEntity
8
0
100
AcDbLine
10
122.99641913431545
20
-119.30803631593443
30
0
11
123.99641913431539
21
-117.57603631593452
31
0
0
LINE
5
119
100
AcDbEntity
8
0
100
AcDbLine
10
121.2644191343155
20
-118.30803631593449
30
0
11
122.99641913431545
21
-119.30803631593443
31
0
0
LINE
5
120
100
AcDbEntity
8
0
100
AcDbLine
10
155.94441913431478
20
-107.18303631593471
30
0
11
156.94441913431478
21
-108.91503631593466
31
0
0
LINE
5
121
100
AcDbEntity
8
0
100
AcDbLine
10
168.0694191343145
20
-100.1830363159349
30
0
11
155.94441913431478
21
-107.18303631593471
31
0
0
LINE
5
122
100
AcDbEntity
8
0
100
AcDbLine
10
157.67641913431473
20
-106.1830363159347
30
0
11
155.94441913431478
21
-107.18303631593471
31
0
0
LINE
5
123
100
AcDbEntity
8
0
100
AcDbLine
10
147.97041913431491
20
-108.78403631593469
30
0
11
149.97041913431485
21
-108.78403631593469
31
0
0
LWPOLYLINE
5
124
100
AcDbEntity
8
0
100
AcDbPolyline
90
4
70
1
43
0.0
10
122.99641913431545
20
-119.30803631593443
10
129.99641913431535
20
-107.18303631593471
10
117.87141913431553
20
-100.1830363159349
10
110.87141913431567
20
-112.30803631593469
0
LWPOLYLINE
5
125
100
AcDbEntity
8
0
100
AcDbPolyline
90
4
70
1
43
0.0
10
123.92041913431542
20
-122.75703631593444
10
133.44541913431522
20
-106.25903631593474
10
116.94741913431555
20
-96.734036315934944
10
107.42241913431579
20
-113.23203631593466
0
LINE
5
126
100
AcDbEntity
8
0
100
AcDbLine
10
111.87141913431569
20
-110.5760363159346
30
0
11
110.87141913431567
21
-112.30803631593469
31
0
0
LINE
5
127
100
AcDbEntity
8
0
100
AcDbLine
10
175.06941913431439
20
-112.30803631593466
30
0
11
168.0694191343145
21
-100.1830363159349
31
0
0
LINE
5
128
100
AcDbEntity
8
0
100
AcDbLine
10
175.06941913431439
20
-112.30803631593466
30
0
11
174.06941913431439
21
-110.5760363159346
31
0
0
LINE
5
129
100
AcDbEntity
8
0
100
AcDbLine
10
155.94441913431478
20
-107.18303631593471
30
0
11
162.94441913431461
21
-119.30803631593443
31
0
0
LINE
5
130
100
AcDbEntity
8
0
100
AcDbLine
10
149.97041913431485
20
-108.78403631593469
30
0
11
149.97041913431485
21
-110.78403631593461
31
0
0
LINE
5
131
100
AcDbEntity
8
0
100
AcDbLine
10
137.97041913431516
20
-108.78403631593469
30
0
11
135.97041913431519
21
-108.78403631593469
31
0
0
LINE
5
132
100
AcDbEntity
8
0
100
AcDbLine
10
135.97041913431519
20
-108.78403631593469
30
0
11
135.97041913431519
21
-110.78403631593461
31
0
0
LINE
5
133
100
AcDbEntity
8
0
100
AcDbLine
10
129.99641913431535
20
-107.18303631593471
30
0
11
128.99641913431532
21
-108.91503631593466
31
0
0
LINE
5
134
100
AcDbEntity
8
0
100
AcDbLine
10
128.26441913431532
20
-106.1830363159347
30
0
11
129.99641913431535
21
-107.18303631593471
31
0
0
LINE
5
135
100
AcDbEntity
8
0
100
AcDbLine
10
119.6034191343155
20
-101.18303631593483
30
0
11
117.87141913431553
21
-100.1830363159349
31
0
0
LINE
5
136
100
AcDbEntity
8
0
100
AcDbLine
10
117.87141913431553
20
-100.1830363159349
30
0
11
116.87141913431559
21
-101.91503631593478
31
0
0
LINE
5
137
100
AcDbEntity
8
0
100
AcDbLine
10
110.87141913431567
20
-112.30803631593469
30
0
11
112.60341913431562
21
-113.3080363159346
31
0
0
LINE
5
138
100
AcDbEntity
8
0
100
AcDbLine
10
168.0694191343145
20
-100.1830363159349
30
0
11
169.06941913431444
21
-101.91503631593478
31
0
0
LINE
5
139
100
AcDbEntity
8
0
100
AcDbLine
10
166.33641913431455
20
-101.18303631593483
30
0
11
168.0694191343145
21
-100.1830363159349
31
0
0
LINE
5
140
100
AcDbEntity
8
0
100
AcDbLine
10
162.94441913431461
20
-119.30803631593443
30
0
11
164.67641913431459
21
-118.30803631593449
31
0
0
LINE
5
141
100
AcDbEntity
8
0
100
AcDbLine
10
161.94441913431467
20
-117.57603631593452
30
0
11
162.94441913431461
21
-119.30803631593443
31
0
0
LINE
5
142
100
AcDbEntity
8
0
100
AcDbLine
10
173.33641913431444
20
-113.3080363159346
30
0
11
175.06941913431439
21
-112.30803631593466
31
0
0
LINE
5
143
100
AcDbEntity
8
0
100
AcDbLine
10
133.44541913431522
20
-125.30903631593432
30
0
11
152.49541913431489
21
-125.30903631593432
31
0
0
LINE
5
144
100
AcDbEntity
8
0
100
AcDbLine
10
149.97041913431485
20
-122.78403631593437
30
0
11
149.97041913431485
21
-120.7840363159344
31
0
0
LWPOLYLINE
5
145
100
AcDbEntity
8
0
100
AcDbPolyline
90
4
70
1
43
0.0
10
200.74775351128821
20
-72.324985932856023
10
200.74775351128824
20
-58.324985932856343
10
186.74775351128858
20
-58.324985932856343
10
186.74775351128858
20
-72.324985932856023
0
LWPOLYLINE
5
146
100
AcDbEntity
8
0
100
AcDbPolyline
90
4
70
1
43
0.0
10
184.2227535112886
20
-74.849985932855972
10
203.27275351128822
20
-74.849985932855972
10
203.27275351128827
20
-55.799985932856401
10
184.2227535112886
20
-55.799985932856401
0
LWPOLYLINE
5
147
100
AcDbEntity
8
0
100
AcDbPolyline
90
4
70
1
43
0.0
10
84.742848822675285
20
-58.324985932856286
10
98.742848822674958
20
-58.324985932856293
10
98.742848822674958
20
-72.324985932855981
10
84.742848822675327
20
-72.324985932855967
0
LWPOLYLINE
5
148
100
AcDbEntity
8
0
100
AcDbPolyline
90
4
70
1
43
0.0
10
82.217848822675307
20
-74.849985932855915
10
82.217848822675279
20
-55.799985932856345
10
101.26784882267494
20
-55.799985932856366
10
101.26784882267494
20
-74.84998593285593
0
LINE
5
149
100
AcDbEntity
8
0
100
AcDbLine
10
134.20867618414783
20
1.0151822385849052
30
0
11
134.00313600608516
21
0.86131952050017113
31
0
0
LINE
5
150
100
AcDbEntity
8
0
100
AcDbLine
10
150.09323170255047
20
7.0161769118107085
30
0
11
149.87122871911089
21
7.2381798952502994
31
0
0
LINE
5
151
100
AcDbEntity
8
0
100
AcDbLine
10
135.02853389893906
20
6.4893130543142865
30
0
11
134.91882143433421
21
6.1951342338123441
31
0
0
LINE
5
152
100
AcDbEntity
8
0
100
AcDbLine
10
134.85209402071621
20
5.8883346856818521
30
0
11
134.83022127773134
21
5.5823108850774963
31
0
0
LINE
5
153
100
AcDbEntity
8
0
100
AcDbLine
10
135.5891637853785
20
7.2382448899443599
30
0
11
135.36715236479199
21
7.0162323690984731
31
0
0
LINE
5
154
100
AcDbEntity
8
0
100
AcDbLine
10
136.71706188797731
20
7.7533115734572746
30
0
11
136.4102593080087
21
7.6865810605771747
31
0
0
LINE
5
155
100
AcDbEntity
8
0
100
AcDbLine
10
134.81141722923516
20
2.1190673272986302
30
0
11
134.75685065089968
21
1.8681859489153363
31
0
0
LINE
5
156
100
AcDbEntity
8
0
100
AcDbLine
10
148.43737490689125
20
7.7751756231784883
30
0
11
137.02308646795126
21
7.7751736206727964
31
0
0
LINE
5
157
100
AcDbEntity
8
0
100
AcDbLine
10
133.77778871242083
20
0.7382754606376063
30
0
11
133.53722451021957
21
0.64855615468852101
31
0
0
LINE
5
158
100
AcDbEntity
8
0
100
AcDbLine
10
149.34433949473424
20
7.5768008138992213
30
0
11
149.05017880708729
21
7.6865265638586742
31
0
0
LINE
5
159
100
AcDbEntity
8
0
100
AcDbLine
10
151.68264724584822
20
0.73824865854858257
30
0
11
151.45729632180002
21
0.86128905383670795
31
0
0
LINE
5
160
100
AcDbEntity
8
0
100
AcDbLine
10
149.05017880708729
20
7.6865265638586742
30
0
11
148.74339600878096
21
7.7532743501157206
31
0
0
LINE
5
161
100
AcDbEntity
8
0
100
AcDbLine
10
150.28138341424727
20
6.76483998948446
30
0
11
150.09323170255047
21
7.0161769118107085
31
0
0
LINE
5
162
100
AcDbEntity
8
0
100
AcDbLine
10
150.43185247193685
20
6.4892868366965093
30
0
11
150.28138341424727
21
6.76483998948446
31
0
0
LINE
5
163
100
AcDbEntity
8
0
100
AcDbLine
10
149.87122871911089
20
7.2381798952502994
30
0
11
149.61989283278899
21
7.4263316550424916
31
0
0
LINE
5
164
100
AcDbEntity
8
0
100
AcDbLine
10
134.83022227773253
20
2.3823130352153141
30
0
11
134.81141722923516
21
2.1190673272986302
31
0
0
LINE
5
165
100
AcDbEntity
8
0
100
AcDbLine
10
151.25175282889211
20
1.015151785469085
30
0
11
151.07020079214223
21
1.1967038222189486
31
0
0
LINE
5
166
100
AcDbEntity
8
0
100
AcDbLine
10
151.92321662732428
20
0.64853606803261798
30
0
11
151.68264724584822
21
0.73824865854858257
31
0
0
LINE
5
167
100
AcDbEntity
8
0
100
AcDbLine
10
134.66713211607956
20
1.6276205021270018
30
0
11
134.54408909496965
21
1.402273463055691
31
0
0
LINE
5
168
100
AcDbEntity
8
0
100
AcDbLine
10
151.07020079214223
20
1.1967038222189486
30
0
11
150.91633894815018
21
1.4022482310185025
31
0
0
LINE
5
169
100
AcDbEntity
8
0
100
AcDbLine
10
150.91633894815018
20
1.4022482310185025
30
0
11
150.793298316586
21
1.6275995878109362
31
0
0
LINE
5
170
100
AcDbEntity
8
0
100
AcDbLine
10
137.02308646795126
20
7.7751736206727964
30
0
11
136.71706188797731
21
7.7533115734572746
31
0
0
LINE
5
171
100
AcDbEntity
8
0
100
AcDbLine
10
150.70358584633001
20
1.8681686468032244
30
0
11
150.64902828516225
21
2.1190553319922598
31
0
0
LINE
5
172
100
AcDbEntity
8
0
100
AcDbLine
10
135.36715236479199
20
7.0162323690984731
30
0
11
135.17899899381453
21
6.7648833279253653
31
0
0
LINE
5
173
100
AcDbEntity
8
0
100
AcDbLine
10
150.63023127550497
20
2.3823059539563882
30
0
11
150.63022927549437
21
5.5823230287862522
31
0
0
LINE
5
174
100
AcDbEntity
8
0
100
AcDbLine
10
151.45729632180002
20
0.86128905383670795
30
0
11
151.25175282889211
21
1.015151785469085
31
0
0
LINE
5
175
100
AcDbEntity
8
0
100
AcDbLine
10
150.64902828516225
20
2.1190553319922598
30
0
11
150.63023127550497
21
2.3823059539563882
31
0
0
LINE
5
176
100
AcDbEntity
8
0
100
AcDbLine
10
134.00313600608516
20
0.86131952050017113
30
0
11
133.77778871242083
21
0.7382754606376063
31
0
0
LINE
5
177
100
AcDbEntity
8
0
100
AcDbLine
10
150.60832585876523
20
5.8883440373531757
30
0
11
150.54157822189626
21
6.1951261490498153
31
0
0
LINE
5
178
100
AcDbEntity
8
0
100
AcDbLine
10
134.39022651404633
20
1.1967325684833707
30
0
11
134.20867618414783
21
1.0151822385849052
31
0
0
LINE
5
179
100
AcDbEntity
8
0
100
AcDbLine
10
134.75685065089968
20
1.8681859489153363
30
0
11
134.66713211607956
21
1.6276205021270018
31
0
0
LINE
5
180
100
AcDbEntity
8
0
100
AcDbLine
10
148.74339600878096
20
7.7532743501157206
30
0
11
148.43737490689125
21
7.7751756231784883
31
0
0
LINE
5
181
100
AcDbEntity
8
0
100
AcDbLine
10
150.63022927549437
20
5.5823230287862522
30
0
11
150.60832585876523
21
5.8883440373531757
31
0
0
LINE
5
182
100
AcDbEntity
8
0
100
AcDbLine
10
149.61989283278899
20
7.4263316550424916
30
0
11
149.34433949473424
21
7.5768008138992213
31
0
0
LINE
5
183
100
AcDbEntity
8
0
100
AcDbLine
10
150.54157822189626
20
6.1951261490498153
30
0
11
150.43185247193685
21
6.4892868366965093
31
0
0
LINE
5
184
100
AcDbEntity
8
0
100
AcDbLine
10
134.83022127773134
20
5.5823108850774963
30
0
11
134.83022227773253
21
2.3823130352153141
31
0
0
LINE
5
185
100
AcDbEntity
8
0
100
AcDbLine
10
150.793298316586
20
1.6275995878109362
30
0
11
150.70358584633001
21
1.8681686468032244
31
0
0
LINE
5
186
100
AcDbEntity
8
0
100
AcDbLine
10
136.4102593080087
20
7.6865810605771747
30
0
11
136.11608053079411
21
7.5768664115955744
31
0
0
LINE
5
187
100
AcDbEntity
8
0
100
AcDbLine
10
135.84051151111743
20
7.4263992001074044
30
0
11
135.5891637853785
21
7.2382448899443599
31
0
0
LINE
5
188
100
AcDbEntity
8
0
100
AcDbLine
10
134.91882143433421
20
6.1951342338123441
30
0
11
134.85209402071621
21
5.8883346856818521
31
0
0
LINE
5
189
100
AcDbEntity
8
0
100
AcDbLine
10
135.17899899381453
20
6.7648833279253653
30
0
11
135.02853389893906
21
6.4893130543142865
31
0
0
LINE
5
190
100
AcDbEntity
8
0
100
AcDbLine
10
136.11608053079411
20
7.5768664115955744
30
0
11
135.84051151111743
21
7.4263992001074044
31
0
0
LINE
5
191
100
AcDbEntity
8
0
100
AcDbLine
10
134.54408909496965
20
1.402273463055691
30
0
11
134.39022651404633
21
1.1967325684833707
31
0
0
LINE
5
192
100
AcDbEntity
8
0
100
AcDbLine
10
77.899449233177819
20
-50.00462813076453
30
0
11
62.562242886450534
21
-58.569197848730148
31
0
0
LINE
5
193
100
AcDbEntity
8
0
100
AcDbLine
10
60.000000000000007
20
-62.934669215643346
30
0
11
60.000000000000071
21
-95.000000000000014
31
0
0
LINE
5
194
100
AcDbEntity
8
0
100
AcDbLine
10
65.000000000000085
20
-100
30
0
11
85.82927741036265
21
-99.999999999999972
31
0
0
LINE
5
195
100
AcDbEntity
8
0
100
AcDbLine
10
208.07696023913144
20
-50.004627193030686
30
0
11
223.41416670924855
21
-58.569196690033138
31
0
0
LINE
5
196
100
AcDbEntity
8
0
100
AcDbLine
10
225.97640965859242
20
-62.934668020032092
30
0
11
225.97641012055763
21
-94.999998804388753
31
0
0
LINE
5
197
100
AcDbEntity
8
0
100
AcDbLine
10
220.97641019259265
20
-99.999998876423732
30
0
11
200.14713278223007
21
-99.999999176511167
31
0
0
LINE
5
198
100
AcDbEntity
8
0
100
AcDbLine
10
208.07696023913144
20
-50.004627193030686
30
0
11
207.51628208380845
21
-49.691534516338166
31
0
0
LINE
5
199
100
AcDbEntity
8
0
100
AcDbLine
10
200.14713278223007
20
-99.999999176511167
30
0
11
199.66132542073166
21
-99.999999183510198
31
0
0
LINE
5
200
100
AcDbEntity
8
0
100
AcDbLine
10
115.67141913431563
20
-126.23387899370611
30
0
11
115.67141913431561
21
-134.00000202655781
31
0
0
LINE
5
201
100
AcDbEntity
8
0
100
AcDbLine
10
170.3395520831674
20
-134.00000202655519
30
0
11
170.33955208316743
21
-125.99982307739681
31
0
0
LINE
5
202
100
AcDbEntity
8
0
100
AcDbLine
10
121.80217487112301
20
-145.00000073375668
30
0
11
164.02516759080618
21
-144.99992562716935
31
0
0
LINE
5
203
100
AcDbEntity
8
0
100
AcDbLine
10
119.00000177323818
20
-136.00000202655792
30
0
11
120.82598603213131
21
-144.21693119157692
31
0
0
LINE
5
204
100
AcDbEntity
8
0
100
AcDbLine
10
165.02027448412719
20
-144.09871191495495
30
0
11
167.00000248849392
21
-136.00000202655792
31
0
0
ARC
5
205
100
AcDbEntity
8
0
100
AcDbCircle
10
65
20
-62.934669215643339
30
0
40
4.999999999999992
210
0
220
0
230
1
100
AcDbArc
50
119.17977035406962
51
180
0
ARC
5
206
100
AcDbEntity
8
0
100
AcDbCircle
10
220.97640965859253
20
-62.934668092067049
30
0
40
4.9999999999998943
210
0
220
-0
230
1
100
AcDbArc
50
8.5377364625159387e-07
51
60.820230471391461
0
ARC
5
207
100
AcDbEntity
8
0
100
AcDbCircle
10
220.97641012055763
20
-94.999998876423732
30
0
40
5
210
-0
220
0
230
1
100
AcDbArc
50
-89.99999917453944
51
0
0
ARC
5
208
100
AcDbEntity
8
0
100
AcDbCircle
10
65.000000000000057
20
-95
30
0
40
4.9999999999999911
210
0
220
0
230
1
100
AcDbArc
50
180
51
270.00000000000034
0
ARC
5
209
100
AcDbEntity
8
0
100
AcDbCircle
10
117.67141913431561
20
-134.00000202655781
30
0
40
2.0000000000000107
210
0
220
0
230
1
100
AcDbArc
50
180
51
270.00000000000324
0
ARC
5
210
100
AcDbEntity
8
0
100
AcDbCircle
10
168.3395520831674
20
-134.00000202655519
30
0
40
2.0000000000000107
210
0
220
0
230
1
100
AcDbArc
50
-89.999999999995936
51
0
0
ARC
5
211
100
AcDbEntity
8
0
100
AcDbCircle
10
164.02516581199842
20
-143.99992562717091
30
0
40
1.0000000000000153
210
0
220
0
230
1
100
AcDbArc
50
270.00010191817705
51
354.33071617652217
0
ARC
5
212
100
AcDbEntity
8
0
100
AcDbCircle
10
121.80217309231524
20
-144.00000073375827
30
0
40
0.99999999999997369
210
0
220
0
230
1
100
AcDbArc
50
192.52880770915135
51
270.00010191817785
0
LINE
5
213
100
AcDbEntity
8
0
100
AcDbLine
10
117.67141913431573
20
-136.00000202655781
30
0
11
119.00000177323818
21
-136.00000202655792
31
0
0
LINE
5
214
100
AcDbEntity
8
0
100
AcDbLine
10
167.00000248849392
20
-136.00000202655792
30
0
11
168.33955208316755
21
-136.00000202655519
31
0
0
ARC
5
215
100
AcDbEntity
8
0
100
AcDbCircle
10
142.74530116698176
20
-65.345912716051103
30
0
40
66.635872664410826
210
0
220
0
230
1
100
AcDbArc
50
294.46296941660086
51
328.66429298033239
0
ARC
5
216
100
AcDbEntity
8
0
100
AcDbCircle
10
142.74530116698176
20
-65.345912716051103
30
0
40
66.635872664410812
210
0
220
-0
230
1
100
AcDbArc
50
13.587153891091338
51
82.106900237947656
0
ARC
5
217
100
AcDbEntity
8
0
100
AcDbCircle
10
142.74530116698176
20
-65.345912716051103
30
0
40
66.63587266441084
210
0
220
0
230
1
100
AcDbArc
50
97.934919036753499
51
166.68964515444469
0
ARC
5
218
100
AcDbEntity
8
0
100
AcDbCircle
10
142.74530116698176
20
-65.345912716051103
30
0
40
66.635872664410854
210
0
220
0
230
1
100
AcDbArc
50
211.33570784160514
51
246.02763940842812
0
LWPOLYLINE
5
219
100
AcDbEntity
8
0
100
AcDbPolyline
90
8
70
1
43
0.0
10
123.20002731839156
20
-34.359311804261161
10
97.887960958315418
20
-16.06956387452734
10
131.83970383517905
20
-30.370848560005548
10
153.65089849878427
20
0.39150031932893903
10
162.29057501557196
20
-34.359311804261161
10
187.46545677727761
20
-15.945030052494396
10
153.65089849878427
20
-30.370848560005484
10
131.83970383517905
20
0.39150031932892959
0
LINE
5
220
100
AcDbEntity
8
0
100
AcDbLine
10
97.887960958315418
20
-16.06956387452734
30
0
11
107.37494001908267
21
-55.799985932856373
31
0
0
LINE
5
221
100
AcDbEntity
8
0
100
AcDbLine
10
187.46545677727761
20
-15.945030052494396
30
0
11
178.11566231488086
21
-55.799985932856401
31
0
0
LWPOLYLINE
5
222
100
AcDbEntity
8
0
100
AcDbPolyline
90
12
70
1
43
0.0
10
65
20
-75
10
70
20
-75
10
70
20
-80
10
75.00000111758709
20
-80
10
75.00000111758709
20
-85.000001266598701
10
70
20
-85.000001266598701
10
65.000000968575478
20
-85.000001266598701
10
65.000000968575478
20
-90.000001341104507
10
70
20
-90.000001341104507
10
70
20
-85.000001266598701
10
70
20
-80
10
65
20
-80
0
LWPOLYLINE
5
223
100
AcDbEntity
8
0
100
AcDbPolyline
90
4
70
1
43
0.0
10
220.46044113754385
20
-80
10
220.46044113754385
20
-75
10
215.46044113754385
20
-75
10
215.46044113754385
20
-80
0
LWPOLYLINE
5
224
100
AcDbEntity
8
0
100
AcDbPolyline
90
4
70
1
43
0.0
10
215.46044113754385
20
-85.000001266598701
10
215.46044113754385
20
-80
10
210.46044001995676
20
-80
10
210.46044001995676
20
-85.000001266598701
0
LWPOLYLINE
5
225
100
AcDbEntity
8
0
100
AcDbPolyline
90
4
70
1
43
0.0
10
220.46044016896838
20
-85.000001266598701
10
220.46044016896838
20
-90.000001341104507
10
215.46044113754385
20
-90.000001341104507
10
215.46044113754385
20
-85.000001266598701
0
LINE
5
226
100
AcDbEntity
8
0
100
AcDbLine
10
131.83970383517905
20
0.39150031932892959
30
0
11
131.83970383517905
21
-30.370848560005548
31
0
0
LINE
5
227
100
AcDbEntity
8
0
100
AcDbLine
10
153.65089849878427
20
0.39150031932893903
30
0
11
153.65089849878427
21
-30.370848560005484
31
0
0
CIRCLE
5
228
100
AcDbEntity
8
0
100
AcDbCircle
10
85.000000000000284
20
-40.000000000000078
30
0
40
1.2499999999999947
210
0
220
0
230
1
0
CIRCLE
5
229
100
AcDbEntity
8
0
100
AcDbCircle
10
64.034433884478332
20
-82.351938996794729
30
0
40
1.2499999999999947
210
0
220
0
230
1
0
CIRCLE
5
230
100
AcDbEntity
8
0
100
AcDbCircle
10
90.000000000000014
20
-99.999999999999986
30
0
40
1.2499999999999947
210
0
220
0
230
1
0
CIRCLE
5
231
100
AcDbEntity
8
0
100
AcDbCircle
10
125.0412792689913
20
-4.062164460276172
30
0
40
1.2499999999999947
210
0
220
0
230
1
0
CIRCLE
5
232
100
AcDbEntity
8
0
100
AcDbCircle
10
123.49425808174878
20
-141.98802523994448
30
0
40
1.2499999999999947
210
0
220
0
230
1
0
CIRCLE
5
233
100
AcDbEntity
8
0
100
AcDbCircle
10
160.93510911434836
20
-4.0621581631163473
30
0
40
1.2499999999999947
210
0
220
0
230
1
0
CIRCLE
5
234
100
AcDbEntity
8
0
100
AcDbCircle
10
200.97640099309723
20
-39.999979653273748
30
0
40
1.2499999999999947
210
0
220
0
230
1
0
CIRCLE
5
235
100
AcDbEntity
8
0
100
AcDbCircle
10
221.94198196893953
20
-82.351911293730666
30
0
40
1.2499999999999947
210
0
220
0
230
1
0
CIRCLE
5
236
100
AcDbEntity
8
0
100
AcDbCircle
10
195.97642204571827
20
-99.999981407655
30
0
40
1.2499999999999947
210
0
220
0
230
1
0
CIRCLE
5
237
100
AcDbEntity
8
0
100
AcDbCircle
10
162.48217869660425
20
-141.98801839996202
30
0
40
1.2499999999999947
210
0
220
0
230
1
0
ENDSEC
0
SECTION
2
OBJECTS
0
DICTIONARY
5
C
100
AcDbDictionary
3
ACAD_GROUP
350
D
3
ACAD_MLINESTYLE
350
17
0
DICTIONARY
5
D
100
AcDbDictionary
0
DICTIONARY
5
1A
330
C
100
AcDbDictionary
0
DICTIONARY
5
17
100
AcDbDictionary
0
ENDSEC
0
EOF
